:SAMPLES-PER-SECOND 30
:FULLY-SPECIFIED
:DEGREES
162
root  -21.6386 39.7116 5.63533 37.7381 81.5545 38.3136
RightUpLeg  -25.0972 -24.82 3.10721
RightLeg  15.3697 -7.68216 -0.95948
RightFoot  -5.25125 -0.137954 1.89302
RightToes  0.00048216 0.542163 -0.142577
Spine  6.45691 0.972921 -0.594858
Spine1  12.6912 1.27636 -1.22326
HEad  -5.59607 -2.71736 0.815478
LeftShoulder1  7.52711 -12.7387 -40.0893
LeftArm  -27.3665 27.9099 -22.604
LeftForeArm  98.8739 -77.5907 -118.326
LeftHand  -0.25398 0.0180481 5.50724
RightShoulder  4.28215 7.61006 32.5877
RightArm  -3.51633 -9.09777 33.4926
RightForeArm  38.9929 77.7222 95.7302
RightHand  0.926042 -13.1262 -14.6756
LeftUpLeg  8.6945 0.90248 -9.90326
LeftLeg  7.52845 12.2691 -2.95874
LeftFoot  -15.787 0.19793 2.63691
LeftToes  1.06244e-005 4.65856e-005 -8.18505e-006
163
root  -20.0896 39.3437 5.47398 57.7621 83.1392 58.4742
RightUpLeg  -23.2263 -13.8948 -1.62353
RightLeg  6.57862 -20.3081 4.2735
RightFoot  -4.23224 -0.249971 3.57086
RightToes  0.00048216 0.542163 -0.142577
Spine  5.70292 0.629088 -1.3391
Spine1  13.3001 0.639984 -0.38059
HEad  -5.46266 -5.12697 1.31071
LeftShoulder1  7.42771 -12.6489 -39.7506
LeftArm  -27.4219 27.186 -22.2616
LeftForeArm  99.7409 -77.4737 -119.291
LeftHand  -0.25398 0.0180481 5.50724
RightShoulder  4.34798 7.63581 33.089
RightArm  -3.9871 -9.30277 33.9396
RightForeArm  39.9462 77.6889 96.9283
RightHand  0.87885 -12.386 -15.37
LeftUpLeg  11.4188 0.957193 -10.6765
LeftLeg  7.78261 9.61844 -3.0467
LeftFoot  -17.5393 0.290634 3.43457
LeftToes  1.06244e-005 4.65856e-005 -8.18505e-006
164
root  -18.4093 38.912 5.30245 81.5217 83.4783 82.5501
RightUpLeg  -22.1878 -7.81969 -3.91539
RightLeg  -1.31163 -26.7948 8.19311
RightFoot  -4.42038 -0.386232 5.89384
RightToes  0.00048216 0.542163 -0.142577
Spine  4.94162 0.361016 -2.01407
Spine1  13.8553 0.0394613 0.587496
HEad  -5.03821 -7.47171 1.41854
LeftShoulder1  7.37067 -12.5856 -39.5857
LeftArm  -27.3987 26.5914 -22.1774
LeftForeArm  99.6485 -77.4737 -119.264
LeftHand  -0.25398 0.0180481 5.50724
RightShoulder  4.33971 7.57595 33.2241
RightArm  -3.99387 -9.418 34.0834
RightForeArm  40.9759 77.6433 98.2844
RightHand  0.846108 -11.8871 -15.9131
LeftUpLeg  14.3129 1.55459 -10.8992
LeftLeg  8.63522 6.65214 -3.3049
LeftFoot  -19.3826 0.342747 3.23487
LeftToes  1.06244e-005 4.65856e-005 -8.18505e-006
165
root  -16.6035 38.4914 5.11695 104.301 82.7528 105.394
RightUpLeg  -22.3368 -7.83109 -3.47988
RightLeg  -3.46826 -25.6229 8.98227
RightFoot  -4.85258 -0.37382 5.94041
RightToes  0.00048216 0.542163 -0.142577
Spine  3.66418 0.0138081 -2.58741
Spine1  14.5991 -0.766123 1.8646
HEad  -4.53412 -9.55756 1.29956
LeftShoulder1  7.35089 -12.5473 -39.5724
LeftArm  -27.1808 26.4425 -22.0592
LeftForeArm  98.9734 -77.5146 -118.82
LeftHand  -0.25398 0.0180481 5.50724
RightShoulder  4.26149 7.4624 32.9166
RightArm  -3.55198 -9.5913 34.0373
RightForeArm  42.9945 77.5425 100.783
RightHand  0.853405 -11.7251 -16.418
LeftUpLeg  16.851 2.62068 -10.5867
LeftLeg  10.1477 3.28987 -3.35589
LeftFoot  -20.2785 0.304754 2.33497
LeftToes  1.06244e-005 4.65856e-005 -8.18505e-006
166
root  -14.7025 38.1688 4.88307 121.904 81.9794 122.675
RightUpLeg  -24.163 -7.95472 -2.32304
RightLeg  1.01197 -23.464 7.20278
RightFoot  -3.33536 -0.07968 1.08441
RightToes  0.00048216 0.542163 -0.142577
Spine  2.18505 -0.346872 -1.53254
Spine1  15.1687 -1.41073 2.57113
HEad  -4.18199 -11.5309 1.25705
LeftShoulder1  7.33375 -12.5193 -39.5468
LeftArm  -26.6075 26.8641 -21.8271
LeftForeArm  97.788 -77.5768 -118.087
LeftHand  -0.25398 0.0180481 5.50724
RightShoulder  4.13444 7.26633 32.4448
RightArm  -2.99716 -10.2162 34.0279
RightForeArm  46.7698 77.3471 104.727
RightHand  0.884133 -11.7706 -16.8361
LeftUpLeg  18.9958 4.86595 -8.91216
LeftLeg  11.958 -1.02222 -3.20182
LeftFoot  -20.0105 0.214912 1.26995
LeftToes  1.06244e-005 4.65856e-005 -8.18505e-006
167
root  -12.7367 37.9172 4.56435 132.239 82.2737 132.637
RightUpLeg  -27.9894 -11.6675 2.04485
RightLeg  10.3613 -16.3561 2.90508
RightFoot  0.06532 0.700633 -6.91895
RightToes  0.00048216 0.542163 -0.142577
Spine  1.4215 -0.342098 2.07729
Spine1  14.9186 -1.15094 1.70135
HEad  -4.07033 -13.3999 1.25526
LeftShoulder1  7.34267 -12.5192 -39.6
LeftArm  -25.9882 27.8755 -21.6539
LeftForeArm  95.805 -77.6989 -116.701
LeftHand  -0.25398 0.0180481 5.50724
RightShoulder  4.03643 7.07293 32.22
RightArm  -2.43248 -11.0423 33.9883
RightForeArm  50.1598 77.1805 107.588
RightHand  0.905449 -11.9107 -16.8584
LeftUpLeg  20.5375 9.16795 -5.45803
LeftLeg  15.0341 -6.77425 -3.35246
LeftFoot  -18.9008 0.0645644 -0.699176
LeftToes  1.06244e-005 4.65856e-005 -8.18505e-006
168
root  -10.8167 37.7345 4.22502 136.817 83.4348 136.973
RightUpLeg  -32.0937 -18.6374 8.79216
RightLeg  19.2776 -5.33287 -1.70382
RightFoot  2.65266 1.57473 -12.7359
RightToes  0.00048216 0.542163 -0.142577
Spine  1.73338 -0.07837 6.29681
Spine1  13.9104 -0.303545 0.21589
HEad  -4.08148 -14.7473 1.00192
LeftShoulder1  7.41762 -12.5378 -39.9922
LeftArm  -25.9269 29.3347 -21.6768
LeftForeArm  93.6282 -77.8419 -115.044
LeftHand  -0.25398 0.0180481 5.50724
RightShoulder  4.06121 7.11064 32.3169
RightArm  -1.59338 -11.1602 33.5606
RightForeArm  49.763 77.2629 106.54
RightHand  0.878998 -11.807 -16.6587
LeftUpLeg  20.1287 13.4344 -1.75427
LeftLeg  21.4516 -12.0494 -4.67848
LeftFoot  -15.014 -0.0381444 -4.40265
LeftToes  1.06244e-005 4.65856e-005 -8.18505e-006
